<svg width="800px" height="800px" fill="none" version="1.1" viewBox="0 0 24 24" xmlns="http://www.w3.org/2000/svg">
 <path d="m5 12c0-3.8659932 3.1340068-7 7-7m-7 7h-3m3 0c0 1.933 0.784 3.683 2.05 4.95l-2.55 2.55m7.5-14.5v-3m0 3c1.933 0 3.683 0.784 4.95 2.05l2.55-2.55m-7.5-2.5h2m-2 0h-2m-8 10v-2m0 2v2m17.5-9.5-1.5-1.5m1.5 1.5 1.5 1.5m-16.5-1.5 1.5-1.5m-1.5 1.5-1.5 1.5m1.5-1.5 2.5 2.5m-2.5 12.5 1.5 1.5m-1.5-1.5-1.5-1.5m6-7.5c0-0.8284271 0.6715729-1.5 1.5-1.5" stroke="#000" stroke-linecap="round" stroke-linejoin="round" stroke-width="2"/>
 <path d="m13.198319 15.358319h7.2m-7.2 2.88h3.6m-3.6-7.92v1.44m7.2-1.44v1.44m-7.776 11.52h8.352c0.806472 0 1.209744 0 1.51776-0.15696 0.270936-0.138024 0.491256-0.358344 0.62928-0.62928 0.15696-0.308016 0.15696-0.711288 0.15696-1.51776v-6.912c0-0.806479 0-1.209715-0.15696-1.517745-0.138024-0.270958-0.358344-0.491249-0.62928-0.629302-0.308016-0.156953-0.711288-0.156953-1.51776-0.156953h-8.352c-0.806472 0-1.209715 0-1.517746 0.156953-0.270957 0.138053-0.491249 0.358344-0.629302 0.629302-0.156952 0.30803-0.156952 0.711266-0.156952 1.517745v6.912c0 0.806472 0 1.209744 0.156952 1.51776 0.138053 0.270936 0.358345 0.491256 0.629302 0.62928 0.308031 0.15696 0.711267 0.15696 1.517746 0.15696z" stroke="#000" stroke-linecap="round" stroke-linejoin="round" stroke-width="1.44"/>
</svg>
