<svg width="800px" height="800px" fill="none" version="1.1" viewBox="0 0 24 24" xmlns="http://www.w3.org/2000/svg">
 <path x="0" y="0" width="24" height="24" ry="3.0508475" d="M 3.0508475,0 H 20.949152 C 22.639322,0 24,1.360678 24,3.0508475 V 20.949152 C 24,22.639322 22.639322,24 20.949152,24 H 3.0508475 C 1.360678,24 0,22.639322 0,20.949152 V 3.0508475 C 0,1.360678 1.360678,0 3.0508475,0 Z" fill="#d32f2f"/>
 <path d="m5.8927337 11.492734c0-3.0927948 2.5072055-5.6000003 5.6000003-5.6000003m-5.6000003 5.6000003h-2.4m2.4 0c0 1.5464 0.6272 2.9464 1.64 3.96l-2.04 2.04m6.0000003-11.6000003v-2.4m0 2.4c1.5464 0 2.9464 0.6272 3.96 1.64l2.04-2.04m-6-2h1.6m-1.6 0h-1.6000003m-6.4 8.0000003v-1.6000003m0 1.6000003v1.6m14.0000003-7.6000003-1.2-1.2m1.2 1.2 1.2 1.2m-13.2000003-1.2 1.2-1.2m-1.2 1.2-1.2 1.2m1.2-1.2 2 2m-2 10.0000003 1.2 1.2m-1.2-1.2-1.2-1.2m4.8-6c0-0.6627423 0.537258-1.2000003 1.2000003-1.2000003" stroke="#fff" stroke-linecap="round" stroke-linejoin="round" stroke-width="1.40001"/>
 <path d="m12.451389 14.179389h5.76m-5.76 2.304h2.88m-2.88-6.336v1.152m5.76-1.152v1.152m-6.2208 9.216h6.6816c0.645178 0 0.967795 0 1.214208-0.125568 0.216749-0.110419 0.393005-0.286675 0.503424-0.503424 0.125568-0.246413 0.125568-0.56903 0.125568-1.214208v-5.5296c0-0.645183 0-0.967772-0.125568-1.214196-0.110419-0.216766-0.286675-0.392999-0.503424-0.503441-0.246413-0.125563-0.56903-0.125563-1.214208-0.125563h-6.6816c-0.645177 0-0.967772 0-1.214197 0.125563-0.216765 0.110442-0.392999 0.286675-0.503441 0.503441-0.125562 0.246424-0.125562 0.569013-0.125562 1.214196v5.5296c0 0.645178 0 0.967795 0.125562 1.214208 0.110442 0.216749 0.286676 0.393005 0.503441 0.503424 0.246425 0.125568 0.569014 0.125568 1.214197 0.125568z" stroke="#fff" stroke-linecap="round" stroke-linejoin="round" stroke-width="1.38"/>
</svg>
