<svg width="800px" height="800px" data-name="Layer 1" version="1.1" viewBox="0 0 24 24" xmlns="http://www.w3.org/2000/svg">
 <defs>
  <style>.cls-1{fill:none;stroke:#ffffff;stroke-miterlimit:10;stroke-width:1.91px;}</style>
 </defs>
 <path x="0.11611966" y="0.07746049" width="23.883881" height="23.922539" rx="0" ry="3.6026218" d="M 3.718742,0 H 20.397378 C 22.393231,0 24,1.6067693 24,3.6026218 V 20.319917 c 0,1.995853 -1.606769,3.602622 -3.602622,3.602622 H 3.718742 c -1.995853,0 -3.602622,-1.606769 -3.602622,-3.602622 V 3.6026218 C 0.11612,1.6067693 1.722889,0 3.718742,0 Z" fill="#008080" stroke-miterlimit="5" stroke-width=".006"/>
 <g stroke="#fff" stroke-width="1.32999">
  <path class="cls-1" d="m16.592 8.1965v3.064a9.184 9.184 0 0 1-9.184 9.176v-12.24"/>
  <circle class="cls-1" cx="12" cy="8.1964998" r="4.592"/>
  <path class="cls-1" d="m5.112 3.6045a3.064 3.064 0 0 0 3.064 3.064h0.8a3.056 3.056 0 0 1 3.024 3.056"/>
  <path class="cls-1" d="m18.888 3.6045a3.064 3.064 0 0 1-3.064 3.064h-0.8a3.056 3.056 0 0 0-3.024 3.056"/>
  <line class="cls-1" x1="15.824" x2="15.824" y1="21.2045" y2="14.9405"/>
  <line class="cls-1" x1="12.768" x2="12.768" y1="18.908499" y2="21.2045"/>
 </g>
</svg>
